<svg xmlns="http://www.w3.org/2000/svg" viewBox="0 0 120 120" width="120" height="120">
  <defs>
    <radialGradient id="coinGradB" cx="40%" cy="35%" r="60%">
      <stop offset="0%" style="stop-color:#d8b850"/>
      <stop offset="60%" style="stop-color:#b09040"/>
      <stop offset="100%" style="stop-color:#705820"/>
    </radialGradient>
    <filter id="coinShadowB">
      <feDropShadow dx="0" dy="2" stdDeviation="3" flood-color="#000" flood-opacity="0.4"/>
    </filter>
  </defs>
  <circle cx="60" cy="60" r="55" fill="url(#coinGradB)" stroke="#705820" stroke-width="3" filter="url(#coinShadowB)"/>
  <circle cx="60" cy="60" r="48" fill="none" stroke="#906830" stroke-width="1.5"/>
  <rect x="50" y="50" width="20" height="20" fill="#0f1f1a" stroke="#705820" stroke-width="2"/>
  <path d="M30 30 Q40 25 50 30 Q45 40 30 30Z" fill="none" stroke="#604818" stroke-width="1" opacity="0.6"/>
  <path d="M70 30 Q80 25 90 30 Q85 40 70 30Z" fill="none" stroke="#604818" stroke-width="1" opacity="0.6"/>
  <path d="M30 90 Q40 95 50 90 Q45 80 30 90Z" fill="none" stroke="#604818" stroke-width="1" opacity="0.6"/>
  <path d="M70 90 Q80 95 90 90 Q85 80 70 90Z" fill="none" stroke="#604818" stroke-width="1" opacity="0.6"/>
  <circle cx="60" cy="35" r="4" fill="none" stroke="#604818" stroke-width="1"/>
  <circle cx="60" cy="85" r="4" fill="none" stroke="#604818" stroke-width="1"/>
</svg>
